<svg width="8" height="13" viewBox="0 0 8 13" fill="none" xmlns="http://www.w3.org/2000/svg">
<path d="M8.00028 6.49658C8.00028 6.21603 7.89764 5.98337 7.67867 5.76441L2.40977 0.61183C2.23185 0.433919 2.01973 0.351807 1.76655 0.351807C1.25334 0.351807 0.835938 0.755528 0.835938 1.26873C0.835938 1.52191 0.945421 1.75457 1.13017 1.93932L5.8106 6.48974L1.13017 11.0538C0.945421 11.2386 0.835938 11.4644 0.835938 11.7244C0.835938 12.2376 1.25334 12.6482 1.76655 12.6482C2.01973 12.6482 2.23185 12.5592 2.40977 12.3813L7.67867 7.22875C7.90448 7.00978 8.00028 6.77713 8.00028 6.49658Z" fill="white" fill-opacity="0.1"/>
</svg>
