<svg width="20" height="16" viewBox="0 0 20 16" fill="none" xmlns="http://www.w3.org/2000/svg">
<path id="Vector" d="M0.400391 8.00001C0.400391 8.26386 0.514122 8.50661 0.720908 8.70714L7.58618 15.7045C7.79297 15.9051 8.01009 16 8.25823 16C8.76486 16 9.16809 15.6201 9.16809 15.0924C9.16809 14.8391 9.07503 14.5858 8.90961 14.4274L6.59361 12.0212L2.49926 8.2111L2.28214 8.72825L5.61138 8.93933H18.6906C19.2282 8.93933 19.6004 8.54883 19.6004 8.00001C19.6004 7.4512 19.2282 7.06069 18.6906 7.06069H5.61138L2.28214 7.27178L2.49926 7.79949L6.59361 3.9789L8.90961 1.57256C9.07503 1.40369 9.16809 1.16095 9.16809 0.907651C9.16809 0.379948 8.76486 0 8.25823 0C8.01009 0 7.79297 0.0844328 7.5655 0.316623L0.720908 7.29289C0.514122 7.49341 0.400391 7.73615 0.400391 8.00001Z" fill="black"/>
</svg>
