<svg width="9" height="10" viewBox="0 0 9 10" fill="none" xmlns="http://www.w3.org/2000/svg">
<path d="M1.60882 1.35935C1.60882 1.87031 1.97023 2.20709 2.51818 2.20709L4.53496 2.20709L6.35368 2.0329L4.55834 3.70514L0.268202 7.97867C0.104952 8.14129 -3.43654e-07 8.36188 -3.55838e-07 8.64064C-3.78172e-07 9.15158 0.338138 9.5 0.862704 9.5C1.09589 9.5 1.32907 9.38386 1.49222 9.22124L5.7941 4.93612L7.48447 3.12454L7.29794 4.84316L7.29794 6.95679C7.29794 7.51421 7.63602 7.87413 8.14897 7.87413C8.66192 7.87413 9 7.5258 9 6.97998L9 1.47548C9 0.883226 8.73187 0.5 8.04405 0.5L2.54145 0.5C2.00525 0.5 1.60882 0.848383 1.60882 1.35935Z" fill="black"/>
</svg>
