<svg width="20" height="20" viewBox="0 0 20 20" fill="none" xmlns="http://www.w3.org/2000/svg">
<path d="M0 8.0892C0 12.5494 3.66428 16.1784 8.16787 16.1784C9.94882 16.1784 11.5763 15.6108 12.9171 14.6579L17.953 19.6554C18.1883 19.8885 18.4954 20 18.823 20C19.519 20 20 19.483 20 18.8039C20 18.4795 19.8772 18.1855 19.6622 17.9726L14.6571 12.9853C15.7114 11.627 16.3357 9.93413 16.3357 8.0892C16.3357 3.62899 12.6715 0 8.16787 0C3.66428 0 0 3.62899 0 8.0892ZM1.75026 8.0892C1.75026 4.58186 4.62642 1.7334 8.16787 1.7334C11.7093 1.7334 14.5855 4.58186 14.5855 8.0892C14.5855 11.5965 11.7093 14.445 8.16787 14.445C4.62642 14.445 1.75026 11.5965 1.75026 8.0892Z" fill="black" fill-opacity="0.5"/>
</svg>
