<svg width="16" height="17" viewBox="0 0 16 17" fill="none" xmlns="http://www.w3.org/2000/svg">
<path d="M0 3.5C0 1.84315 1.34315 0.5 3 0.5H13C14.6569 0.5 16 1.84315 16 3.5V13.5C16 15.1569 14.6569 16.5 13 16.5H3C1.34315 16.5 0 15.1569 0 13.5V3.5Z" fill="#0077FF"/>
<path d="M8.44657 11.62C5.02995 11.62 3.0812 9.27769 3 5.38013H4.71143C4.76765 8.24084 6.02933 9.45258 7.0287 9.70243V5.38013H8.64026V7.84733C9.62714 7.74115 10.6639 6.61685 11.0136 5.38013H12.6252C12.3566 6.90417 11.2323 8.02847 10.4328 8.49068C11.2323 8.86545 12.5128 9.84609 13 11.62H11.226C10.845 10.4332 9.89572 9.51504 8.64026 9.39012V11.62H8.44657Z" fill="white"/>
</svg>
