<?xml version="1.0" standalone="no"?>
<!DOCTYPE svg PUBLIC "-//W3C//DTD SVG 20010904//EN"
 "http://www.w3.org/TR/2001/REC-SVG-20010904/DTD/svg10.dtd">
<svg version="1.0" xmlns="http://www.w3.org/2000/svg"
 width="522.000000pt" height="522.000000pt" viewBox="0 0 522.000000 522.000000"
 preserveAspectRatio="xMidYMid meet">
<metadata>
Created by potrace 1.14, written by Peter Selinger 2001-2017
</metadata>
<g transform="translate(0.000000,522.000000) scale(0.100000,-0.100000)"
fill="#000000" stroke="none">
<path d="M925 4990 c2 -10 -3 -21 -11 -24 -9 -3 -12 -1 -9 4 3 6 3 10 0 10 -3
0 -11 -13 -16 -29 -7 -19 -16 -28 -24 -24 -10 3 -13 -1 -10 -16 2 -12 0 -19
-5 -16 -4 3 -11 -1 -13 -7 -4 -10 -6 -10 -6 0 -1 10 -4 10 -15 0 -8 -7 -11
-17 -8 -22 3 -5 0 -6 -7 -2 -9 6 -9 11 -1 21 10 11 8 13 -9 10 -12 -2 -21 1
-21 6 0 6 -4 7 -10 4 -6 -3 -7 1 -4 9 3 9 1 16 -5 16 -6 0 -8 6 -5 14 3 8 0
17 -7 22 -8 5 -10 3 -4 -7 6 -11 5 -11 -5 -2 -9 9 -18 9 -33 1 -15 -7 -22 -7
-29 3 -7 10 -8 8 -5 -9 3 -12 1 -20 -4 -16 -5 3 -9 0 -9 -6 0 -6 -4 -8 -10 -5
-5 3 -10 2 -10 -4 0 -5 6 -12 13 -14 7 -3 4 -6 -7 -6 -15 -1 -16 -4 -7 -15 10
-11 8 -17 -6 -25 -11 -6 -13 -11 -5 -11 7 0 10 -5 7 -10 -5 -8 -12 -7 -23 2
-9 7 -6 -1 7 -20 12 -18 19 -32 14 -31 -15 4 -43 -13 -37 -22 3 -5 0 -9 -5 -9
-11 0 -15 13 -12 35 1 6 -8 -1 -19 -14 -15 -17 -20 -19 -20 -8 0 9 -4 19 -10
22 -6 4 -7 -1 -3 -11 5 -14 3 -16 -11 -11 -11 5 -15 3 -10 -5 5 -7 2 -9 -7 -6
-16 6 -43 -38 -29 -47 5 -3 8 -21 6 -39 -1 -19 2 -33 8 -32 6 1 12 -3 13 -9 1
-5 -6 -9 -15 -7 -12 2 -9 -3 8 -17 24 -20 24 -20 2 -14 -18 4 -21 2 -16 -11 6
-16 -2 -19 -48 -19 -9 0 -17 -2 -16 -6 2 -20 -4 -31 -16 -31 -9 0 -13 -10 -12
-25 0 -15 6 -23 13 -21 16 6 10 -23 -8 -36 -11 -8 -11 -9 3 -5 18 6 33 -19 17
-28 -5 -4 -6 -12 -2 -18 14 -23 11 -37 -10 -49 -19 -10 -20 -9 -9 4 11 13 11
18 0 24 -7 4 -10 4 -6 -1 4 -4 3 -14 -4 -22 -6 -7 -8 -16 -4 -20 3 -4 -4 -18
-16 -31 -13 -14 -18 -23 -12 -19 5 3 18 -5 28 -18 10 -13 26 -22 35 -20 10 2
18 -3 18 -11 0 -11 -3 -11 -16 -1 -14 11 -14 10 -2 -6 8 -10 20 -16 27 -13 13
5 44 -18 44 -32 0 -11 -20 -38 -20 -28 0 6 -7 1 -16 -10 -8 -10 -13 -13 -9 -6
3 6 2 12 -3 12 -17 0 -22 -13 -9 -28 8 -11 8 -14 0 -9 -7 4 -14 -1 -18 -13 -3
-11 -13 -20 -20 -20 -9 0 -12 -6 -8 -17 5 -12 2 -15 -8 -11 -10 4 -14 -2 -16
-20 -1 -17 2 -21 7 -12 6 10 12 11 22 3 22 -18 24 -19 43 -3 11 8 16 10 12 4
-3 -6 1 -11 9 -11 8 0 13 6 10 12 -3 8 4 10 21 7 18 -3 24 -1 19 7 -5 7 0 10
16 7 30 -4 32 -46 3 -63 -19 -12 -19 -12 5 -13 25 -1 25 -1 3 -10 -13 -5 -23
-16 -23 -24 0 -8 -6 -16 -12 -18 -7 -3 -14 -18 -14 -34 -3 -44 -3 -46 -13 -39
-5 3 -13 0 -17 -6 -4 -8 -3 -9 4 -5 7 4 12 2 12 -4 0 -6 4 -9 8 -6 5 3 9 -2 9
-10 0 -10 -4 -11 -11 -4 -16 16 -30 12 -16 -5 9 -11 9 -15 1 -15 -7 0 -10 -10
-7 -26 4 -21 2 -25 -12 -20 -13 5 -13 3 2 -9 11 -8 15 -15 8 -15 -6 0 -9 -7
-5 -17 4 -11 3 -14 -5 -9 -7 4 -12 3 -12 -2 0 -6 7 -13 16 -16 9 -4 12 -11 7
-18 -4 -7 -8 -19 -9 -26 -2 -8 -5 -17 -9 -20 -3 -4 -4 6 -1 21 2 14 1 29 -3
31 -3 3 -7 -13 -7 -34 0 -30 3 -37 15 -33 13 5 14 3 4 -8 -18 -18 -16 -29 5
-30 10 0 12 -3 5 -6 -9 -3 -10 -10 -4 -21 5 -9 9 -21 10 -27 1 -5 7 -10 14
-10 6 0 13 -6 13 -12 1 -7 2 -18 3 -24 1 -8 7 -7 18 2 11 10 14 10 9 2 -4 -8
-2 -13 6 -13 10 0 10 -2 -1 -9 -9 -6 -7 -9 10 -9 36 0 53 -6 66 -22 11 -15 15
-16 49 -19 8 0 12 -5 9 -11 -6 -9 8 -14 28 -11 4 0 7 -3 7 -9 0 -5 5 -10 11
-10 5 0 7 5 4 10 -3 6 1 10 10 10 9 0 13 -4 10 -10 -3 -5 -2 -10 4 -10 5 0 13
5 16 10 3 6 11 10 16 10 6 0 7 -5 3 -11 -3 -6 6 -3 22 7 26 17 28 17 15 1 -10
-13 -10 -17 -1 -17 9 0 9 -4 -1 -17 -10 -12 -10 -15 -1 -9 10 6 12 -4 10 -43
-2 -32 -7 -50 -14 -47 -6 2 -11 -2 -11 -9 0 -8 5 -13 11 -12 11 2 16 -52 5
-59 -4 -2 -6 7 -5 21 2 13 -1 22 -6 19 -5 -3 -7 -12 -4 -20 3 -8 0 -14 -7 -14
-9 0 -9 -2 0 -8 7 -4 11 -18 8 -30 -2 -13 3 -26 13 -32 14 -9 12 -10 -8 -4
-21 6 -23 5 -13 -7 7 -9 8 -20 3 -28 -11 -19 -1 -43 16 -37 8 3 11 0 7 -9 -3
-8 -9 -13 -13 -10 -4 3 -10 -1 -12 -8 -7 -17 2 -38 12 -32 5 3 12 1 15 -5 4
-6 1 -9 -7 -8 -8 2 -13 -7 -13 -27 0 -16 5 -29 10 -28 6 1 12 -8 12 -20 1 -13
-1 -17 -5 -10 -5 8 -13 9 -22 3 -8 -6 -10 -10 -4 -10 13 0 12 -38 0 -59 -6 -9
-5 -12 2 -7 5 3 12 3 15 -1 2 -5 2 -1 0 7 -2 8 -1 11 4 7 4 -5 8 -22 9 -38 1
-24 0 -27 -10 -14 -9 13 -11 12 -11 -9 0 -13 5 -22 10 -19 15 5 17 -40 2 -49
-9 -6 -9 -8 0 -8 10 0 13 -17 14 -103 0 -9 4 -15 10 -12 10 7 11 6 13 -52 0
-24 6 -43 11 -43 6 0 3 -5 -5 -10 -13 -8 -12 -10 4 -10 20 0 20 0 0 -16 -10
-8 -13 -12 -6 -9 9 5 13 1 12 -11 -4 -33 0 -45 10 -39 9 6 13 -15 13 -68 0
-11 5 -16 13 -13 7 3 16 0 20 -6 4 -7 3 -8 -4 -4 -7 4 -12 2 -12 -3 0 -6 6
-11 13 -11 8 0 7 -4 -3 -10 -10 -6 -11 -10 -2 -10 6 0 12 -9 12 -19 0 -11 5
-21 12 -23 11 -4 19 -26 22 -64 0 -13 6 -19 14 -17 7 3 12 -3 12 -16 0 -19 10
-26 33 -22 5 1 6 -3 2 -9 -3 -6 -10 -8 -15 -5 -5 3 -12 0 -16 -6 -4 -7 -3 -9
3 -6 6 4 19 -1 30 -11 10 -9 12 -12 4 -7 -12 9 -12 7 -2 -13 7 -12 17 -20 22
-16 7 4 10 -3 8 -17 -2 -13 1 -24 6 -24 6 0 9 4 7 8 -1 5 2 6 8 2 5 -3 10 -17
10 -31 0 -13 5 -24 11 -24 5 0 7 -6 3 -12 -6 -9 -3 -9 9 0 14 12 16 11 12 -8
-3 -16 0 -20 10 -16 18 7 20 -5 3 -22 -9 -9 -6 -11 11 -7 12 2 19 0 16 -6 -4
-5 -1 -9 5 -9 6 0 9 -4 5 -9 -3 -5 5 -11 17 -13 16 -2 22 -9 20 -20 -2 -10 2
-18 9 -18 6 0 9 -7 5 -15 -3 -10 1 -15 14 -15 10 0 22 -5 26 -12 5 -7 3 -8 -6
-3 -9 6 -11 4 -6 -4 5 -7 15 -10 23 -6 14 5 14 3 2 -12 -9 -11 -10 -14 -2 -9
8 4 13 2 13 -4 0 -6 5 -8 10 -5 6 4 7 11 4 17 -4 7 -2 8 4 4 6 -4 9 -13 6 -21
-3 -8 1 -22 10 -30 19 -19 22 -6 4 15 -8 9 -6 9 5 -1 10 -9 19 -25 20 -36 0
-11 7 -20 14 -20 7 0 9 5 5 12 -4 6 1 2 10 -8 10 -11 15 -23 12 -28 -3 -5 2
-6 10 -3 9 4 16 1 16 -6 0 -7 7 -10 16 -6 8 3 12 2 9 -4 -3 -6 6 -15 20 -20
23 -9 25 -13 15 -25 -8 -10 -9 -15 -2 -15 6 0 14 4 17 10 7 11 55 -31 48 -42
-2 -4 3 -5 11 -2 9 3 19 -3 26 -16 6 -11 15 -18 20 -15 5 3 11 -4 15 -14 4
-14 11 -18 23 -14 15 6 16 5 2 -12 -8 -10 -10 -16 -4 -12 6 3 20 -1 30 -9 10
-9 12 -12 4 -8 -13 7 -13 5 -1 -9 7 -9 10 -17 6 -17 -4 0 4 -13 18 -30 16 -19
23 -37 20 -50 -3 -12 0 -20 6 -20 7 0 9 5 5 12 -4 7 -3 8 4 4 6 -4 10 -20 8
-36 -2 -17 1 -30 6 -30 6 0 8 -6 5 -14 -7 -18 18 -40 35 -30 10 5 10 4 1 -6
-9 -10 -8 -16 6 -29 9 -9 11 -12 4 -7 -8 5 -16 7 -19 4 -2 -3 10 -13 28 -21
26 -13 28 -17 13 -18 -16 0 -14 -3 8 -11 21 -7 25 -13 17 -23 -8 -9 -6 -14 5
-19 11 -4 14 -2 9 6 -4 7 -3 8 5 4 9 -6 9 -11 -1 -24 -7 -9 -8 -13 -2 -9 6 3
20 -1 30 -9 10 -9 12 -13 4 -9 -8 4 -6 0 4 -9 10 -8 22 -13 26 -11 4 3 10 -5
13 -16 4 -15 11 -20 21 -16 9 4 16 2 16 -4 0 -6 6 -7 13 -4 6 4 3 -1 -8 -10
-20 -17 -20 -17 3 -10 14 4 22 2 22 -5 0 -7 7 -9 15 -6 13 5 15 -2 13 -35 -2
-37 -3 -39 -16 -22 -13 17 -14 17 -8 -4 5 -16 2 -23 -14 -28 -18 -6 -19 -9 -8
-23 8 -10 9 -13 1 -9 -7 4 -14 -1 -18 -12 -3 -11 -12 -22 -20 -25 -8 -3 -15
-12 -15 -21 0 -8 -5 -15 -11 -15 -5 0 -7 5 -3 12 4 7 3 8 -4 4 -6 -4 -9 -13
-6 -21 4 -9 -3 -18 -17 -24 -13 -5 -20 -10 -15 -10 5 -1 3 -8 -4 -16 -7 -8
-16 -13 -20 -10 -4 2 -7 -3 -6 -13 1 -20 -39 -63 -50 -54 -5 4 -3 0 4 -10 9
-11 10 -18 2 -23 -5 -3 -10 -1 -10 6 0 7 -3 9 -8 5 -7 -8 -8 -13 -11 -43 -1
-16 -3 -16 -11 -3 -9 14 -14 7 -11 -13 1 -5 -7 -11 -18 -14 -12 -3 -17 -11
-14 -19 3 -9 0 -12 -9 -9 -8 3 -21 -2 -29 -11 -12 -16 -12 -17 4 -11 11 4 16
3 12 -3 -3 -6 -18 -10 -32 -10 -18 0 -24 -4 -20 -15 5 -11 1 -12 -18 -5 -19 7
-23 6 -18 -5 6 -18 -8 -19 -26 -2 -11 10 -12 9 -6 -2 6 -11 4 -13 -8 -8 -9 3
-19 1 -23 -5 -5 -7 -2 -8 7 -3 11 7 11 6 -1 -9 -13 -17 -14 -17 -21 1 -7 16
-8 16 -8 1 -1 -9 -6 -20 -13 -24 -7 -4 -8 -3 -4 4 5 8 -2 12 -19 12 -18 0 -24
-4 -19 -12 6 -10 4 -10 -8 0 -13 10 -17 10 -21 0 -4 -10 -6 -10 -6 0 -1 6 -11
12 -22 12 -19 0 -20 -2 -8 -17 13 -17 13 -17 -5 -3 -11 8 -21 14 -23 12 -3 -2
-8 0 -11 4 -4 4 0 4 8 -1 8 -5 12 -4 7 0 -9 10 -47 15 -47 6 0 -3 -11 -6 -24
-6 -16 0 -22 4 -18 15 4 12 2 13 -9 3 -17 -17 -35 -17 -21 0 8 9 1 12 -29 12
-39 0 -51 -8 -26 -19 6 -2 2 -4 -10 -2 -12 1 -26 6 -30 11 -5 4 -2 5 6 0 10
-5 12 -4 7 4 -11 17 -26 4 -20 -17 5 -14 3 -14 -10 2 -15 18 -16 19 -16 2 0
-12 -5 -16 -15 -12 -8 3 -15 1 -15 -4 0 -6 -7 -10 -15 -10 -8 0 -15 -4 -15 -8
0 -4 -9 -8 -20 -9 -13 -1 -18 2 -13 10 5 9 3 9 -8 1 -8 -6 -27 -11 -42 -10
-16 1 -31 -3 -34 -8 -3 -5 -1 -6 6 -2 8 5 10 -1 6 -22 -5 -28 -3 -29 35 -29
22 0 40 3 40 7 0 4 -15 6 -34 5 -28 -2 -33 0 -28 13 4 10 7 12 10 4 2 -7 8
-12 13 -12 6 0 7 6 3 13 -6 9 -4 9 7 1 8 -6 22 -10 31 -9 11 2 15 -2 11 -11
-5 -13 25 -20 65 -15 8 1 4 -7 -7 -18 -25 -25 -27 -41 -5 -41 9 0 12 -5 8 -13
-5 -7 -1 -7 10 2 15 13 19 13 27 0 5 -8 9 -9 9 -3 0 8 58 12 68 4 3 -3 19 -7
33 -9 5 0 8 -5 5 -9 -7 -12 41 -9 51 2 4 5 2 6 -5 2 -6 -4 -12 -2 -12 3 0 15
27 14 33 -1 4 -8 6 -7 6 4 1 12 9 15 32 14 16 -1 33 2 36 7 3 6 1 7 -5 3 -6
-3 -13 -2 -17 4 -6 9 14 14 43 11 6 -1 12 3 12 10 0 8 5 7 17 -2 10 -9 14 -9
10 -2 -6 9 2 11 28 9 19 -2 35 1 35 6 0 6 -7 7 -16 4 -8 -3 -12 -2 -9 3 3 6
14 9 25 8 15 -1 19 -6 15 -22 -5 -15 -2 -14 9 5 9 14 15 19 16 13 0 -7 5 -13
11 -13 5 0 8 4 5 8 -3 5 22 8 54 8 33 -1 60 3 60 7 0 5 4 5 10 2 5 -3 23 4 39
16 16 12 34 19 39 15 6 -3 14 -1 18 5 4 7 3 9 -3 6 -6 -4 -13 -1 -16 6 -4 10
2 13 19 9 13 -2 21 -9 18 -14 -4 -6 6 -2 21 8 28 18 28 18 16 -3 -10 -20 -9
-21 11 -18 16 3 19 2 11 -6 -6 -6 -9 -17 -7 -24 4 -8 -3 -11 -21 -9 -20 2 -25
-1 -21 -12 4 -10 2 -13 -7 -7 -20 12 -37 12 -34 0 1 -7 -6 -11 -15 -11 -14 1
-15 -2 -8 -16 5 -9 6 -21 2 -25 -4 -5 -1 -5 6 -1 7 4 9 13 5 19 -4 7 0 6 10
-2 9 -7 17 -10 17 -5 0 5 5 2 10 -6 8 -12 10 -12 10 -1 0 11 3 11 17 0 14 -12
16 -12 8 0 -6 10 -4 12 4 7 7 -5 10 -15 7 -25 -4 -11 -1 -10 12 5 17 20 18 20
36 2 11 -10 27 -16 36 -13 9 3 25 -2 36 -10 18 -15 18 -15 0 -8 -13 4 -17 3
-12 -5 5 -8 2 -10 -8 -6 -9 3 -16 2 -16 -4 0 -6 -11 -9 -24 -8 -17 2 -23 -2
-21 -13 1 -9 -3 -20 -9 -24 -6 -4 0 -6 14 -4 14 2 19 2 13 0 -20 -7 -15 -22 7
-20 11 1 20 5 20 9 0 4 5 8 11 8 5 0 7 -5 3 -12 -4 -7 -3 -8 4 -4 6 4 9 12 6
19 -3 8 4 13 16 13 11 0 20 -4 20 -8 0 -4 -5 -8 -11 -8 -5 0 -7 -5 -4 -11 5
-6 11 -5 18 5 9 12 16 13 27 5 13 -9 12 -10 -3 -5 -10 3 -15 2 -12 -3 8 -15
46 -9 41 6 -3 7 -2 12 2 12 4 -1 9 -1 12 0 22 8 78 6 73 -2 -3 -6 -1 -7 5 -3
7 4 12 14 12 22 0 8 5 14 11 14 5 0 7 -6 4 -12 -4 -7 0 -5 7 4 9 10 25 15 41
14 14 -2 24 1 21 5 -3 5 0 9 6 9 6 0 8 5 4 12 -4 7 -3 8 5 4 6 -4 8 -13 5 -19
-4 -7 -4 -9 1 -5 4 4 17 3 29 -3 20 -9 20 -9 3 4 -12 10 -14 17 -8 22 6 3 11
3 11 -2 0 -4 5 -1 10 7 6 10 10 11 10 3 0 -9 7 -10 25 -3 14 5 25 7 25 4 0 -2
10 0 21 7 12 6 19 7 15 1 -3 -6 5 -9 19 -8 23 1 24 2 8 13 -22 16 -8 17 20 1
28 -15 49 -19 41 -7 -3 5 -10 7 -15 4 -5 -4 -9 -2 -9 3 0 11 30 20 48 15 6 -3
9 -10 5 -16 -4 -7 1 -6 10 2 19 15 23 26 5 15 -7 -5 -8 -3 -4 5 6 9 12 9 25
-3 15 -14 17 -13 18 5 1 12 -3 17 -9 13 -7 -5 -8 -2 -4 5 6 9 13 8 28 -6 21
-18 21 -18 8 7 -12 23 -12 24 3 11 9 -7 23 -11 31 -8 19 8 28 -3 16 -18 -8 -9
-3 -12 20 -9 17 2 28 0 25 -5 -3 -5 -1 -12 5 -16 6 -4 7 -11 4 -17 -4 -7 -2
-8 5 -4 7 4 20 -2 31 -16 11 -13 19 -17 20 -10 0 6 -4 12 -10 12 -5 0 -10 4
-10 8 0 5 19 9 41 10 23 1 48 7 56 14 11 9 13 8 11 -3 -2 -8 -7 -17 -13 -21
-6 -5 -5 -8 2 -8 19 0 34 35 21 48 -6 6 -16 9 -22 8 -6 -2 -8 -1 -3 1 4 3 7 9
7 14 0 6 -4 7 -10 4 -5 -3 -10 -2 -10 4 0 5 -11 8 -25 6 -14 -1 -25 2 -25 6 0
5 10 9 22 9 28 0 18 10 -17 16 -15 3 -36 15 -47 27 -12 14 -21 18 -24 10 -4
-8 -13 -9 -35 -1 -16 5 -26 14 -23 19 3 5 -4 9 -16 9 -11 0 -24 9 -28 19 -4
11 -11 21 -17 23 -5 2 -9 13 -9 26 1 16 -2 20 -9 13 -6 -6 -16 -11 -21 -11 -6
0 -5 4 3 9 13 8 13 12 1 28 -12 15 -12 16 0 6 18 -17 33 -17 24 -1 -11 17 -12
48 -2 42 7 -4 13 44 9 69 -1 5 3 6 8 2 6 -3 8 -13 5 -23 -5 -14 -4 -14 4 -2 6
8 8 18 5 23 -3 4 2 16 11 26 9 10 19 31 22 47 3 15 7 31 10 35 2 4 0 10 -6 14
-17 11 -1 23 23 18 16 -3 18 -2 8 5 -11 8 -11 14 0 33 7 13 12 25 11 27 -7 10
0 22 11 16 8 -5 7 -2 -2 9 -12 15 -12 17 2 11 12 -4 14 -1 10 17 -5 16 -3 20
6 14 10 -6 11 -3 2 13 -8 16 -7 23 6 33 14 12 16 12 8 -1 -6 -12 -6 -13 6 -2
12 11 12 14 -1 22 -12 8 -12 10 1 15 10 4 15 16 13 31 -1 13 2 24 8 24 6 0 7
-7 4 -16 -3 -9 -2 -12 5 -9 5 4 9 16 7 28 -2 12 3 22 10 23 6 1 17 2 23 3 8 1
8 5 0 15 -9 11 -7 13 11 12 16 -1 23 4 22 17 -1 11 5 17 18 17 10 0 17 4 13 9
-3 5 -1 12 4 16 6 3 7 13 4 23 -5 14 -2 13 11 -3 14 -15 16 -16 12 -3 -2 9 4
24 14 33 15 14 17 22 9 36 -7 14 -7 19 3 17 7 -2 14 8 16 22 2 14 8 29 12 34
5 5 6 -2 3 -15 -5 -24 -5 -24 10 -4 9 11 17 15 17 9 0 -7 15 -12 35 -12 19 0
33 3 30 7 -2 4 2 8 10 8 8 0 12 -4 9 -8 -2 -4 11 -7 29 -6 26 1 33 6 29 17 -4
12 -2 13 9 3 7 -7 18 -13 23 -13 6 0 4 5 -4 10 -13 8 -12 10 3 10 11 0 15 5
11 11 -4 7 2 6 17 -2 23 -12 23 -11 9 6 -14 17 -13 18 11 13 17 -3 26 0 26 8
0 7 -4 11 -9 8 -15 -9 -8 3 9 17 11 10 14 10 9 2 -9 -16 -4 -16 29 -1 14 6 25
16 25 22 0 6 5 4 10 -4 8 -13 11 -13 22 -1 9 10 10 12 1 7 -9 -5 -11 -2 -7 8
3 8 14 13 25 11 14 -3 19 2 20 18 0 12 3 16 6 10 7 -18 53 40 53 67 0 20 2 21
17 9 12 -10 15 -11 9 -1 -4 7 -3 19 3 26 7 8 11 18 10 22 -3 21 2 26 16 14 12
-10 13 -8 10 10 -3 17 0 20 12 16 13 -5 14 -4 4 8 -9 11 -9 16 0 22 8 5 9 3 4
-6 -5 -9 -4 -11 3 -6 7 4 12 16 12 27 0 11 7 19 16 19 10 0 14 6 10 15 -4 10
1 15 15 15 13 0 19 5 16 13 -7 19 18 38 33 24 10 -10 10 -7 0 12 -7 13 -7 21
-2 17 6 -3 13 3 17 14 4 11 11 18 16 15 8 -6 13 8 10 27 0 5 2 7 7 7 19 -3 33
2 27 10 -3 5 0 13 6 17 7 4 9 3 5 -4 -3 -6 -2 -13 3 -16 12 -8 23 22 14 37 -3
7 4 3 17 -8 13 -11 20 -14 16 -7 -4 7 -2 12 6 12 10 0 10 2 0 9 -10 6 -6 10
15 16 15 5 33 7 38 6 6 0 1 6 -10 15 -18 15 -18 16 -1 10 10 -3 25 -1 32 5 7
6 19 7 26 3 11 -6 11 -5 0 8 -9 11 -10 18 -2 23 5 3 10 0 10 -7 1 -7 8 -1 16
15 8 15 22 27 30 27 8 0 13 4 10 9 -6 8 30 25 47 22 5 -1 6 3 2 9 -3 6 -11 8
-16 5 -5 -4 -9 -1 -9 4 0 6 9 11 20 11 11 0 20 7 20 15 0 15 9 18 40 16 10 0
11 1 3 5 -21 9 -15 32 9 36 14 2 24 12 28 28 3 14 12 25 19 25 8 0 15 9 17 19
1 10 9 23 16 27 10 7 10 9 1 9 -7 0 -13 5 -13 11 0 5 4 8 9 5 11 -7 33 43 25
56 -4 6 -2 8 4 4 11 -6 25 9 28 32 1 7 -3 9 -9 5 -9 -5 -9 -3 0 8 6 8 13 19
15 24 1 6 8 9 15 9 6 -1 9 5 5 14 -4 11 -1 14 11 9 9 -3 17 -2 17 4 0 6 5 7
10 4 6 -3 10 -2 10 4 0 5 -6 12 -12 15 -7 3 -4 5 7 3 11 -1 26 2 34 7 10 7 12
6 6 -4 -5 -9 -4 -11 3 -6 7 4 12 14 12 22 0 8 4 13 9 9 5 -3 12 -1 15 4 3 5
15 7 26 4 14 -4 20 0 20 10 0 9 9 19 20 22 11 3 20 11 20 16 0 6 -6 7 -12 3
-10 -6 -10 -5 -1 7 13 16 12 44 -2 56 -4 4 -5 2 -1 -4 4 -8 1 -13 -8 -13 -9 0
-14 8 -13 20 1 15 7 19 22 15 11 -3 14 -2 8 1 -7 3 -13 10 -13 15 0 6 5 7 10
4 6 -3 10 -1 10 5 0 6 11 8 25 6 13 -3 24 -2 24 2 -3 21 2 32 13 26 8 -5 9 -2
4 12 -4 10 -4 15 0 11 4 -4 13 -2 21 4 7 6 13 8 13 4 0 -4 7 -2 15 5 8 7 15 9
15 5 0 -4 7 -2 15 5 8 7 15 21 15 32 0 10 5 16 10 13 6 -3 10 -1 10 4 0 6 -4
11 -9 11 -11 0 -9 19 3 39 6 10 5 12 -2 7 -7 -4 -12 -1 -12 6 0 11 -15 14 -60
12 -38 -1 -60 3 -60 10 0 6 -4 5 -9 -2 -7 -11 -9 -10 -14 3 -4 10 -3 14 4 10
6 -4 9 0 7 10 -3 18 16 27 55 26 14 0 16 5 11 22 -6 22 -6 22 11 2 13 -15 15
-16 12 -3 -4 11 0 15 11 14 9 -2 22 5 29 14 7 10 26 20 44 24 28 5 30 8 18 23
-9 11 -10 14 -2 9 7 -4 21 -2 30 4 16 11 16 11 -1 5 -20 -6 -20 -6 0 16 11 14
13 19 4 14 -13 -8 -13 -7 0 10 11 14 12 19 2 22 -6 3 -10 9 -6 14 3 5 -2 9
-11 9 -11 0 -15 5 -11 15 3 9 0 15 -9 15 -7 0 -22 8 -31 18 -16 15 -17 15 -11
0 5 -14 0 -16 -36 -12 -23 3 -50 7 -61 10 -13 5 -16 3 -11 -6 5 -9 4 -11 -4
-6 -6 4 -9 11 -6 16 6 9 54 8 71 -2 6 -4 11 -1 11 6 0 8 -7 13 -16 11 -9 -1
-22 3 -30 9 -11 8 -13 8 -7 -1 5 -9 2 -11 -10 -6 -15 5 -14 7 2 17 22 12 24
13 62 16 15 1 21 4 15 7 -7 2 -13 9 -13 14 0 6 5 7 10 4 6 -3 10 0 10 7 0 10
2 10 9 -1 6 -9 11 -10 15 -2 4 6 5 15 1 20 -3 5 0 13 6 17 8 4 9 3 5 -4 -4 -7
-2 -12 3 -12 6 0 11 5 11 11 0 5 6 7 13 3 7 -5 7 -2 -2 10 -12 15 -12 17 0 14
8 -2 13 3 12 9 -2 7 3 12 10 10 7 -1 13 10 15 26 2 15 8 27 13 27 6 0 8 -4 4
-9 -3 -5 -1 -12 3 -15 9 -5 9 110 1 119 -3 2 -19 5 -36 7 -22 1 -29 6 -25 17
3 9 1 12 -6 7 -7 -4 -12 -2 -12 5 0 8 -4 8 -15 -1 -11 -9 -15 -9 -15 -1 0 9
-5 9 -20 1 -15 -8 -20 -8 -20 1 0 8 -5 7 -17 -2 -10 -7 -15 -10 -11 -5 4 5 2
18 -4 30 -9 17 -8 19 3 9 16 -16 33 -17 23 -2 -4 8 0 9 15 4 13 -4 21 -2 21 5
0 6 -4 9 -9 5 -5 -3 -13 0 -17 6 -4 7 -3 9 4 5 6 -3 13 -2 17 4 4 6 11 7 17 4
7 -5 9 0 6 14 -4 13 -2 20 3 16 13 -7 41 15 33 27 -3 5 -1 9 4 9 5 0 8 11 6
26 -2 18 1 22 10 15 8 -7 11 -3 10 17 -3 42 -4 42 -11 41 -21 -3 -26 2 -13 12
12 9 11 10 -7 6 -14 -3 -20 -1 -17 8 4 8 -4 11 -22 9 -16 -1 -35 2 -44 7 -11
7 -9 8 9 3 14 -4 21 -2 17 4 -3 5 -17 12 -31 14 -13 3 -22 1 -19 -3 3 -5 -2
-6 -10 -3 -9 3 -16 11 -16 18 0 7 -3 6 -9 -2 -7 -11 -9 -11 -14 2 -7 17 8 30
23 21 6 -4 17 -1 25 5 12 10 15 9 15 -6 0 -14 2 -16 9 -6 11 17 21 17 32 0 7
-10 9 -10 9 2 1 9 6 5 16 -10 l15 -25 -5 25 c-3 14 -3 19 0 12 3 -6 10 -10 15
-7 5 4 6 0 4 -7 -4 -9 2 -14 15 -15 13 -1 18 3 14 10 -3 7 0 5 8 -4 7 -9 21
-15 31 -13 24 3 21 -5 -5 -16 -21 -9 -20 -9 7 -6 37 3 58 -13 42 -34 -9 -12
-9 -13 3 -2 19 17 30 15 30 -5 0 -10 4 -14 8 -8 4 6 13 11 21 13 12 3 12 0 1
-13 -11 -13 -10 -15 4 -9 12 5 19 0 23 -15 3 -11 10 -21 15 -21 5 0 6 6 3 13
-4 6 1 3 10 -8 9 -11 21 -20 28 -20 7 0 11 -9 9 -19 -2 -11 1 -15 7 -11 6 3
11 1 11 -4 0 -6 7 -11 16 -11 8 0 12 -4 9 -10 -3 -5 0 -10 8 -10 18 0 47 -32
47 -53 0 -11 5 -14 17 -10 9 4 14 2 11 -3 -7 -10 17 -61 26 -56 3 1 7 -1 8 -5
3 -13 26 -33 37 -33 6 0 7 -8 4 -17 -5 -12 -2 -15 9 -11 8 4 15 1 15 -7 0 -7
-7 -11 -16 -8 -9 2 -5 -2 9 -10 14 -9 24 -18 23 -21 -2 -3 0 -6 3 -5 4 0 10
-4 13 -10 11 -17 31 4 35 37 3 28 1 31 -12 20 -13 -11 -14 -11 -8 1 5 8 3 17
-5 23 -10 7 -7 8 11 4 14 -3 19 -3 12 0 -6 3 -10 9 -7 14 3 5 0 14 -7 22 -7 7
-14 20 -16 28 -2 8 -9 22 -16 30 -8 8 -12 25 -11 38 1 12 -2 22 -7 22 -5 0 -6
4 -3 10 3 5 1 18 -5 27 -11 16 -11 16 -6 1 3 -10 2 -19 -2 -22 -4 -3 -9 9 -10
26 -3 38 -10 50 -24 42 -7 -4 -8 -2 -4 5 4 6 12 9 17 6 5 -4 9 -1 9 4 0 10
-17 14 -50 12 -10 0 -11 1 -2 5 14 7 17 34 3 34 -10 0 -27 39 -23 53 1 5 -2 6
-8 2 -6 -3 -8 -11 -5 -16 4 -5 1 -9 -5 -9 -6 0 -10 6 -9 13 3 27 -2 39 -15 34
-10 -4 -13 -1 -9 9 3 7 -1 14 -8 14 -7 0 -9 3 -6 7 4 3 -10 15 -30 25 -27 12
-31 16 -13 13 22 -4 21 -3 -5 9 -16 8 -33 12 -38 9 -4 -2 -7 -1 -6 4 4 24 -4
33 -28 34 -25 0 -26 1 -8 9 l20 9 -20 2 c-11 1 -25 2 -31 2 -6 0 -9 8 -7 18 4
16 0 19 -26 19 -20 0 -31 5 -31 14 0 9 -7 13 -20 11 -11 -2 -20 1 -20 6 0 6
-4 7 -10 4 -5 -3 -10 1 -10 9 0 17 -2 17 -62 20 -35 1 -48 10 -32 24 4 4 4 2
1 -5 -8 -12 17 -12 30 1 4 4 4 7 -2 6 -5 -1 -12 -1 -15 0 -17 8 -77 5 -89 -4
-12 -9 -13 -8 -6 3 6 11 1 13 -24 9 -18 -3 -35 0 -38 5 -3 6 -1 7 5 3 7 -4 12
-3 12 2 0 5 -11 10 -25 10 -20 0 -23 -3 -14 -14 18 -22 2 -16 -20 7 -14 15
-21 17 -26 8 -5 -8 -4 -10 3 -5 7 4 12 3 12 -3 0 -5 -9 -9 -20 -8 -12 1 -19 6
-15 14 3 10 0 11 -14 4 -12 -7 -22 -6 -31 2 -10 8 -10 6 0 -7 13 -17 13 -19 0
-14 -8 3 -23 1 -34 -4 -13 -7 -16 -7 -12 1 4 6 2 11 -3 11 -6 0 -11 -5 -11
-11 0 -5 -5 -7 -10 -4 -6 4 -18 1 -27 -7 -11 -8 -14 -8 -10 -1 5 8 1 11 -12
10 -11 0 -17 -5 -15 -9 3 -4 1 -8 -5 -8 -5 0 -11 5 -13 10 -2 6 -12 3 -23 -7
-11 -10 -29 -19 -40 -19 -12 0 -19 -6 -17 -14 2 -10 0 -11 -10 -3 -16 13 -48
13 -48 0 0 -5 8 -6 18 -2 12 4 14 3 6 -5 -6 -6 -22 -12 -35 -12 -13 -1 -30 -6
-38 -12 -11 -8 -13 -8 -7 2 4 7 2 12 -5 12 -6 0 -9 -8 -7 -18 4 -15 0 -18 -18
-16 -13 1 -24 -3 -24 -9 0 -8 -3 -7 -9 1 -6 10 -10 8 -14 -8 -3 -12 -11 -20
-19 -19 -7 1 -22 1 -33 0 -15 -1 -17 -3 -6 -10 8 -5 9 -11 3 -15 -6 -3 -13 -2
-17 4 -10 15 -27 0 -20 -17 4 -13 3 -14 -9 -4 -11 9 -16 9 -22 0 -4 -8 -3 -9
4 -5 7 4 12 3 12 -2 0 -5 -18 -10 -40 -10 -22 -1 -38 3 -35 7 2 5 -4 11 -14
14 -13 3 -18 0 -15 -8 3 -8 -3 -12 -18 -11 -31 3 -65 -14 -49 -24 9 -5 6 -9
-8 -13 -14 -3 -19 -1 -14 6 4 7 -1 6 -11 -2 -12 -10 -13 -16 -6 -21 8 -5 7 -9
-4 -13 -9 -4 -16 -1 -17 6 0 7 -4 2 -10 -11 -6 -15 -13 -21 -21 -16 -10 6 -10
4 0 -8 11 -13 10 -16 -5 -14 -11 0 -17 -5 -15 -14 1 -10 -3 -9 -14 5 -14 16
-16 17 -11 3 4 -10 2 -18 -3 -18 -5 0 -6 -8 -3 -17 7 -17 6 -17 -11 0 -22 22
-25 21 -19 -2 3 -10 -1 -22 -8 -26 -8 -5 -10 -4 -5 3 5 8 2 10 -8 6 -9 -3 -14
-10 -11 -14 3 -5 1 -11 -5 -15 -5 -3 -10 0 -10 7 0 8 -5 6 -11 -5 -6 -9 -14
-15 -20 -12 -5 4 -9 -1 -9 -9 0 -9 -9 -16 -20 -16 -11 0 -19 -6 -18 -12 2 -7
-7 -14 -20 -16 -14 -2 -22 -9 -19 -17 4 -9 -1 -11 -15 -7 -14 3 -19 1 -14 -6
3 -6 1 -14 -5 -18 -8 -4 -9 -3 -5 4 4 7 1 12 -8 12 -8 0 -18 -5 -22 -12 -5 -7
-3 -8 6 -3 9 5 11 4 6 -3 -4 -7 -18 -12 -31 -12 -13 0 -27 -5 -31 -12 -4 -6
-3 -8 4 -4 6 3 14 1 18 -5 4 -8 3 -9 -4 -5 -7 4 -12 3 -12 -2 0 -6 -9 -8 -20
-5 -19 5 -25 -5 -21 -31 1 -5 -5 -6 -14 -2 -10 3 -18 -1 -22 -12 -9 -26 -37
-49 -52 -44 -8 3 -11 0 -7 -7 4 -6 0 -11 -10 -11 -17 0 -16 -1 1 -13 17 -13
16 -14 -6 -12 -33 3 -41 -3 -29 -25 8 -15 6 -17 -10 -13 -15 4 -18 1 -15 -17
4 -19 2 -20 -12 -8 -12 9 -15 9 -9 1 4 -8 2 -13 -6 -13 -9 0 -9 -3 2 -10 13
-8 12 -10 -3 -10 -11 0 -15 -4 -11 -12 5 -8 2 -9 -11 -4 -15 5 -16 4 -6 -8 9
-11 9 -16 0 -22 -8 -5 -9 -3 -4 6 5 9 4 11 -3 6 -7 -4 -12 -16 -12 -26 0 -10
-5 -22 -12 -26 -7 -5 -8 -3 -3 6 5 9 4 11 -4 6 -9 -6 -9 -11 1 -24 8 -10 9
-13 1 -9 -6 4 -14 3 -18 -3 -3 -5 -1 -10 5 -10 6 0 8 -5 5 -10 -5 -7 -11 -8
-19 -1 -8 7 -12 4 -12 -10 0 -10 5 -19 11 -19 5 0 4 -4 -3 -9 -8 -4 -14 -12
-15 -17 -1 -5 -5 -8 -9 -6 -5 1 -8 -3 -8 -9 0 -8 -4 -8 -14 0 -11 9 -16 9 -22
0 -5 -8 -3 -9 6 -4 9 5 11 4 6 -3 -4 -7 -14 -12 -22 -12 -10 0 -12 -5 -8 -12
5 -9 2 -9 -9 1 -14 11 -17 11 -17 0 0 -8 -6 -4 -15 8 -10 15 -24 20 -45 19
-16 -1 -30 0 -30 3 0 3 -25 5 -55 5 -30 -1 -55 2 -55 6 0 5 11 7 24 4 14 -2
27 0 30 4 3 5 -5 8 -17 7 -12 -1 -30 2 -39 7 -12 6 -18 5 -18 -3 0 -9 -3 -9
-14 0 -8 6 -18 10 -24 9 -5 -2 -19 8 -31 22 -13 14 -20 19 -16 13 3 -7 1 -13
-4 -13 -6 0 -11 8 -11 18 0 18 -10 22 -54 23 -18 0 -18 0 0 15 17 12 17 13 2
8 -10 -3 -18 -1 -18 5 0 6 -7 11 -15 11 -8 0 -15 9 -15 20 0 21 -20 28 -21 8
0 -7 -4 -2 -10 10 -5 13 -7 28 -3 33 3 5 1 9 -5 9 -5 0 -12 -6 -14 -12 -3 -7
-6 1 -6 18 -1 23 -7 33 -21 37 -13 3 -18 11 -14 20 3 10 -1 17 -13 20 -16 4
-16 5 2 6 16 2 14 5 -10 16 -16 7 -24 14 -17 14 19 1 14 21 -5 21 -13 0 -14 3
-5 12 7 7 12 17 12 22 0 6 -4 5 -9 -3 -14 -21 -27 -5 -25 28 1 18 -2 28 -8 25
-5 -3 -7 -13 -3 -23 4 -11 3 -13 -4 -6 -6 6 -12 23 -13 38 -1 15 -8 27 -14 27
-20 0 -25 28 -6 33 12 3 10 5 -6 6 -13 0 -20 6 -17 11 3 6 -2 10 -12 11 -10 0
-13 3 -6 6 10 3 9 8 -2 20 -8 8 -12 20 -8 26 4 6 0 8 -11 4 -13 -5 -15 -2 -12
18 4 24 -3 30 -29 25 -5 -1 -4 4 3 11 16 17 15 34 -2 20 -11 -9 -13 -6 -12 16
1 19 -4 28 -14 28 -10 0 -15 10 -15 33 0 34 -11 43 -18 15 -3 -12 -5 -8 -6 9
0 15 -5 29 -11 33 -5 3 -6 13 -3 23 6 14 4 15 -8 5 -12 -10 -15 -8 -17 13 -3
34 -11 46 -25 38 -7 -3 -3 2 8 11 20 17 20 17 -2 11 -18 -6 -21 -4 -18 13 2
13 -3 25 -15 31 -12 6 -17 19 -16 35 2 14 -1 25 -5 25 -5 0 -9 -4 -9 -10 0 -5
-4 -10 -9 -10 -5 0 -9 6 -8 13 1 32 -4 48 -13 42 -5 -3 -10 -2 -10 4 0 5 3 11
8 14 4 2 1 2 -5 1 -16 -4 -44 36 -46 65 0 11 -3 18 -5 16 -6 -6 -27 17 -35 38
-4 11 -12 15 -18 11 -7 -4 -9 -3 -5 4 3 6 2 13 -4 17 -5 3 -10 1 -10 -5 0 -6
-5 -8 -10 -5 -8 5 -7 12 2 23 11 13 10 15 -10 10 -17 -5 -21 -3 -13 6 7 8 1
15 -21 25 -22 10 -27 16 -17 22 10 6 7 9 -11 10 -14 1 -28 1 -31 1 -4 -1 -4 8
-1 20 3 13 1 19 -5 15 -6 -4 -16 0 -23 8 -11 13 -10 14 6 9 16 -5 16 -4 4 5
-8 6 -22 8 -31 6 -9 -3 -16 1 -16 9 0 8 6 12 15 8 10 -3 13 -1 9 5 -9 14 19
43 41 44 11 0 12 2 5 6 -7 2 -13 9 -13 15 0 6 8 7 17 4 10 -4 14 -4 10 0 -4 4
-2 13 4 21 6 7 9 22 6 32 -3 13 0 18 8 15 6 -3 18 3 26 12 12 16 12 17 -4 11
-16 -6 -16 -5 -2 17 8 12 12 26 8 31 -5 4 -3 5 4 1 7 -4 9 -14 6 -24 -3 -9 -3
-14 1 -11 13 12 15 53 3 68 -9 11 -9 13 0 8 9 -6 12 4 10 35 l-3 43 -49 2
c-28 1 -44 0 -37 -3 6 -3 12 -10 12 -15 0 -6 -4 -8 -9 -4 -5 3 -12 1 -16 -4
-9 -15 -35 -1 -28 15 3 8 -1 14 -8 14 -10 1 -10 3 2 10 20 12 18 41 -7 71 -21
26 -66 35 -57 12 3 -9 -6 -18 -25 -25 -25 -10 -28 -14 -16 -22 11 -8 2 -11
-35 -12 -35 0 -47 3 -41 11 5 6 5 17 0 25 -12 19 -13 33 -1 25 5 -3 13 0 17 6
4 7 3 9 -2 6 -6 -3 -16 3 -23 15 -7 11 -8 17 -2 13 6 -3 11 1 11 9 0 9 -9 16
-20 16 -14 0 -20 7 -20 23 -1 22 -1 22 -16 -3 l-15 -25 7 25 6 25 -21 -22
c-12 -13 -28 -23 -35 -23 -18 0 -48 -35 -39 -45 5 -5 1 -4 -9 3 -12 10 -18 10
-24 1 -4 -8 -3 -9 4 -5 7 4 12 2 12 -3 0 -18 -20 -13 -27 7 -4 9 -13 22 -21
28 -12 8 -12 15 -3 32 9 18 9 22 -1 20 -6 -2 -13 3 -14 10 -1 6 -2 17 -3 23 0
5 -5 7 -11 4 -5 -3 -10 2 -10 13 0 10 -6 19 -12 20 -7 0 -23 3 -35 5 -17 4
-21 2 -18 -13z m-490 -450 c3 -6 -1 -7 -9 -4 -18 7 -21 14 -7 14 6 0 13 -4 16
-10z m3669 -578 c3 -5 -1 -9 -9 -9 -8 0 -12 4 -9 9 3 4 7 8 9 8 2 0 6 -4 9 -8z
m511 -30 c-3 -3 -11 0 -18 7 -9 10 -8 11 6 5 10 -3 15 -9 12 -12z m-4118 -28
c-3 -3 -12 -4 -19 -1 -8 3 -5 6 6 6 11 1 17 -2 13 -5z m3907 -174 c4 0 5 4 1
9 -3 5 -1 12 4 15 5 4 12 2 15 -3 4 -5 2 -13 -4 -16 -6 -4 -8 -16 -4 -28 6
-19 5 -20 -9 -9 -10 9 -17 10 -22 2 -3 -6 -11 -8 -16 -4 -5 3 -7 10 -3 15 3 5
10 7 15 4 12 -8 11 1 -2 28 -9 20 -9 20 4 5 8 -10 17 -18 21 -18z m63 15 c0
-8 -4 -12 -9 -9 -5 3 -6 10 -3 15 9 13 12 11 12 -6z m-110 -29 c-7 -14 -14
-21 -17 -18 -8 10 -34 8 -42 -3 -5 -6 -8 -4 -8 5 0 13 -1 13 -11 0 -9 -13 -10
-13 -6 0 2 9 14 14 31 13 15 -1 24 2 21 7 -3 6 1 7 10 4 9 -4 15 -3 14 2 -3
17 1 25 10 20 5 -4 4 -16 -2 -30z m-131 -21 c1 -8 -1 -17 -5 -19 -4 -3 -7 6
-7 19 0 25 8 25 12 0z m349 -174 c3 -5 2 -12 -3 -15 -5 -3 -9 1 -9 9 0 17 3
19 12 6z m-4105 -5 c0 -2 -7 -7 -16 -10 -8 -3 -12 -2 -9 4 6 10 25 14 25 6z
m134 -98 c-3 -4 -9 -8 -15 -8 -5 0 -9 4 -9 8 0 5 7 9 15 9 8 0 12 -4 9 -9z
m4413 -24 c-3 -3 -12 -4 -19 -1 -8 3 -5 6 6 6 11 1 17 -2 13 -5z m-372 -44 c3
-5 1 -10 -4 -10 -6 0 -11 5 -11 10 0 6 2 10 4 10 3 0 8 -4 11 -10z m476 -77
c-11 -5 -11 -7 0 -14 10 -6 7 -8 -8 -6 -17 1 -19 4 -11 14 6 7 16 13 22 12 6
0 5 -3 -3 -6z m-4340 -166 c-10 -9 -11 -8 -5 6 3 10 9 15 12 12 3 -3 0 -11 -7
-18z m4 -67 c-3 -5 -11 -10 -16 -10 -6 0 -7 5 -4 10 3 6 11 10 16 10 6 0 7 -4
4 -10z m1859 -51 c3 -3 -8 -5 -23 -4 -16 0 -27 3 -25 7 5 8 40 6 48 -3z
m-1854 -170 c0 -5 -4 -9 -8 -9 -5 0 -9 7 -9 15 0 8 4 12 9 9 4 -3 8 -9 8 -15z
m3725 -168 c3 -5 2 -12 -3 -15 -5 -3 -9 1 -9 9 0 17 3 19 12 6z m-458 -536 c0
-8 -4 -12 -9 -9 -4 3 -8 9 -8 15 0 5 4 9 8 9 5 0 9 -7 9 -15z m-37 -55 c0 -5
-5 -10 -11 -10 -5 0 -7 5 -4 10 3 6 8 10 11 10 2 0 4 -4 4 -10z m-654 -678
c-17 -16 -18 -16 -5 5 7 12 15 20 18 17 3 -2 -3 -12 -13 -22z m-1701 -42 c3
-5 2 -10 -4 -10 -5 0 -13 5 -16 10 -3 6 -2 10 4 10 5 0 13 -4 16 -10z m65
-166 c0 -8 -5 -12 -10 -9 -6 4 -8 11 -5 16 9 14 15 11 15 -7z m1160 -48 c0 -3
-4 -8 -10 -11 -5 -3 -10 -1 -10 4 0 6 5 11 10 11 6 0 10 -2 10 -4z m-555 -217
c-5 -15 -4 -19 4 -15 6 4 11 14 11 22 0 8 5 14 10 14 6 0 10 -5 10 -12 0 -9 3
-9 12 0 7 7 17 12 23 12 5 0 3 -5 -5 -10 -11 -7 -11 -10 -2 -10 8 0 10 -5 6
-12 -5 -9 -2 -9 9 1 14 11 17 11 17 0 0 -11 2 -11 10 1 7 12 10 12 10 1 0 -7
6 -11 15 -7 14 5 20 -7 15 -29 -2 -5 -2 -20 -2 -32 1 -12 -6 -27 -16 -33 -13
-9 -14 -10 -1 -7 13 4 16 -2 15 -33 0 -21 -4 -36 -8 -34 -4 2 -5 13 -3 24 2
11 0 20 -6 20 -5 0 -7 -10 -6 -22 2 -12 1 -38 -3 -59 -4 -21 -3 -43 1 -50 4
-8 3 -19 -3 -26 -6 -7 -7 -13 -3 -13 4 0 2 -7 -5 -15 -7 -8 -17 -12 -23 -8 -6
3 -7 1 -3 -5 4 -6 12 -10 19 -8 7 1 9 1 4 -1 -4 -3 -4 -10 -1 -15 4 -7 2 -8
-4 -4 -12 7 -15 -4 -15 -46 0 -10 -7 -18 -16 -19 -12 0 -11 -2 4 -9 14 -6 16
-9 5 -10 -8 -2 -17 -2 -20 -2 -3 0 -5 -16 -5 -35 0 -22 -5 -38 -14 -41 -9 -3
-11 0 -6 8 5 9 4 11 -4 6 -6 -4 -9 -11 -6 -16 3 -5 1 -11 -5 -15 -6 -4 -8 -10
-5 -15 3 -5 1 -11 -5 -15 -5 -3 -10 -1 -10 5 0 6 -5 8 -10 5 -8 -5 -7 -11 1
-21 10 -13 8 -14 -14 -10 -15 2 -29 0 -33 -5 -3 -5 -10 -6 -16 -3 -7 4 -8 2
-4 -5 6 -9 11 -9 22 0 8 6 14 7 14 3 0 -15 -38 -35 -45 -23 -5 7 -11 6 -21 -2
-9 -7 -14 -8 -14 -1 0 14 -40 3 -65 -17 -16 -13 -17 -13 -8 -1 10 13 3 15 -58
15 -44 0 -69 4 -69 11 0 6 -12 16 -27 23 l-28 12 25 -22 25 -21 -25 15 c-14 8
-24 22 -24 31 2 14 -1 14 -13 5 -11 -10 -14 -10 -11 2 2 9 -8 15 -30 17 -18 2
-30 8 -26 13 3 5 10 6 16 3 6 -4 8 -3 5 3 -3 5 -19 9 -35 8 -21 -1 -28 3 -29
17 -2 20 13 25 20 6 3 -7 4 -3 4 8 -1 15 -6 20 -17 17 -8 -3 -5 4 8 16 13 11
21 25 18 30 -4 5 0 15 7 23 7 7 18 24 25 38 l12 25 -5 -25 c-3 -14 -2 -19 1
-12 3 6 10 10 15 7 5 -4 6 2 2 11 -5 13 -3 15 8 9 12 -7 12 -6 1 7 -10 13 -10
18 -1 24 8 4 9 3 5 -4 -4 -7 -3 -12 3 -12 6 0 14 12 17 26 5 19 9 22 15 12 5
-7 9 -10 10 -5 1 4 3 12 4 17 1 6 3 15 4 20 0 6 7 9 13 8 7 -2 14 7 16 19 3
18 7 21 21 14 14 -8 17 -6 17 12 -1 17 4 21 19 19 l20 -4 -20 17 c-11 9 -15
14 -8 11 6 -4 22 4 35 16 13 13 17 17 8 10 -14 -10 -17 -9 -17 2 0 8 4 14 8
13 4 -1 15 7 24 18 9 11 14 15 11 8 -4 -6 -1 -15 6 -19 7 -4 10 -4 6 1 -11 12
23 64 39 58 9 -4 11 0 7 11 -5 13 -2 15 12 10 11 -4 24 -11 31 -16 7 -6 14 -4
19 3 4 7 3 9 -3 6 -6 -4 -15 -1 -21 6 -8 9 -2 13 26 15 55 3 62 5 56 13 -4 7
16 49 24 49 2 0 0 -10 -3 -21z m-505 -289 c0 -5 -5 -10 -11 -10 -5 0 -7 5 -4
10 3 6 8 10 11 10 2 0 4 -4 4 -10z m760 -40 c-6 -11 -12 -20 -14 -20 -2 0 -2
9 1 20 3 11 9 20 15 20 5 0 4 -9 -2 -20z m-1395 -220 c3 -5 1 -10 -4 -10 -6 0
-11 5 -11 10 0 6 2 10 4 10 3 0 8 -4 11 -10z m505 -86 c0 -8 -19 -13 -24 -6
-3 5 1 9 9 9 8 0 15 -2 15 -3z m993 -7 c3 -8 -1 -14 -8 -14 -7 0 -11 6 -8 14
6 16 10 16 16 0z m-499 -5 c2 -4 -4 -8 -14 -8 -10 0 -16 4 -14 8 3 4 9 8 14 8
5 0 11 -4 14 -8z m-1107 -45 c0 -8 -6 -14 -13 -14 -7 0 -10 6 -7 14 7 17 20
17 20 0z m690 -9 c-3 -8 -6 -5 -6 6 -1 11 2 17 5 13 3 -3 4 -12 1 -19z m53 12
c0 -5 -2 -10 -4 -10 -3 0 -8 5 -11 10 -3 6 -1 10 4 10 6 0 11 -4 11 -10z
m-582 -55 c-3 -3 -9 2 -12 12 -6 14 -5 15 5 6 7 -7 10 -15 7 -18z m727 -5 c3
-6 -1 -7 -9 -4 -18 7 -21 14 -7 14 6 0 13 -4 16 -10z"/>
<path d="M2426 618 c3 -5 10 -6 15 -3 13 9 11 12 -6 12 -8 0 -12 -4 -9 -9z"/>
<path d="M1425 4820 c3 -5 8 -10 11 -10 2 0 4 5 4 10 0 6 -5 10 -11 10 -5 0
-7 -4 -4 -10z"/>
<path d="M1455 4420 c-3 -5 -1 -10 4 -10 6 0 11 5 11 10 0 6 -2 10 -4 10 -3 0
-8 -4 -11 -10z"/>
<path d="M338 4333 c6 -2 9 -10 6 -15 -4 -7 -2 -8 5 -4 13 9 5 26 -12 25 -9 0
-8 -2 1 -6z"/>
<path d="M1686 4107 c3 -10 9 -15 12 -12 3 3 0 11 -7 18 -10 9 -11 8 -5 -6z"/>
<path d="M370 4099 c0 -5 5 -7 10 -4 6 3 10 8 10 11 0 2 -4 4 -10 4 -5 0 -10
-5 -10 -11z"/>
<path d="M502 4027 c-7 -8 -7 -18 -2 -27 6 -8 10 -10 11 -5 0 6 2 18 4 28 4
20 1 21 -13 4z"/>
<path d="M3667 3819 c7 -7 15 -10 18 -7 3 3 -2 9 -12 12 -14 6 -15 5 -6 -5z"/>
<path d="M4836 3817 c3 -10 9 -15 12 -12 3 3 0 11 -7 18 -10 9 -11 8 -5 -6z"/>
<path d="M5097 3429 c7 -7 15 -10 18 -7 3 3 -2 9 -12 12 -14 6 -15 5 -6 -5z"/>
<path d="M4605 3390 c-3 -6 1 -7 9 -4 18 7 21 14 7 14 -6 0 -13 -4 -16 -10z"/>
<path d="M758 3273 c7 -3 16 -2 19 1 4 3 -2 6 -13 5 -11 0 -14 -3 -6 -6z"/>
<path d="M2400 3059 c0 -5 5 -7 10 -4 6 3 10 8 10 11 0 2 -4 4 -10 4 -5 0 -10
-5 -10 -11z"/>
<path d="M4536 2862 c-3 -5 1 -9 9 -9 8 0 12 4 9 9 -3 4 -7 8 -9 8 -2 0 -6 -4
-9 -8z"/>
<path d="M4408 2784 c12 -21 39 -27 39 -8 0 8 -2 12 -5 9 -3 -2 -13 0 -24 6
-17 9 -19 8 -10 -7z"/>
<path d="M4466 2768 c3 -4 9 -8 15 -8 5 0 9 4 9 8 0 5 -7 9 -15 9 -8 0 -12 -4
-9 -9z"/>
<path d="M4455 2600 c-3 -5 -1 -10 4 -10 6 0 11 5 11 10 0 6 -2 10 -4 10 -3 0
-8 -4 -11 -10z"/>
<path d="M790 2519 c0 -5 5 -7 10 -4 6 3 10 8 10 11 0 2 -4 4 -10 4 -5 0 -10
-5 -10 -11z"/>
<path d="M795 2480 c3 -5 8 -10 11 -10 2 0 4 5 4 10 0 6 -5 10 -11 10 -5 0 -7
-4 -4 -10z"/>
<path d="M4346 2398 c3 -5 10 -6 15 -3 13 9 11 12 -6 12 -8 0 -12 -4 -9 -9z"/>
<path d="M4282 2374 c-7 -8 -8 -14 -3 -14 10 0 25 19 20 25 -2 1 -10 -3 -17
-11z"/>
<path d="M1150 1789 c0 -5 5 -7 10 -4 6 3 10 8 10 11 0 2 -4 4 -10 4 -5 0 -10
-5 -10 -11z"/>
<path d="M3635 1720 c-3 -5 -1 -10 4 -10 6 0 11 5 11 10 0 6 -2 10 -4 10 -3 0
-8 -4 -11 -10z"/>
<path d="M895 280 c-3 -5 -1 -10 4 -10 6 0 11 5 11 10 0 6 -2 10 -4 10 -3 0
-8 -4 -11 -10z"/>
<path d="M1850 160 c0 -6 7 -10 15 -10 8 0 15 2 15 4 0 2 -7 6 -15 10 -8 3
-15 1 -15 -4z"/>
<path d="M1905 140 c-3 -6 1 -7 9 -4 18 7 21 14 7 14 -6 0 -13 -4 -16 -10z"/>
<path d="M2047 73 c-9 -15 17 -23 34 -11 11 8 11 9 -3 5 -9 -3 -18 -1 -21 6
-2 8 -5 8 -10 0z"/>
</g>
</svg>
