<svg width="8" height="13" viewBox="0 0 8 13" fill="none" xmlns="http://www.w3.org/2000/svg">
<path d="M-0.000277103 6.50342C-0.000277078 6.78397 0.102364 7.01663 0.321331 7.23559L5.59023 12.3882C5.76815 12.5661 5.98027 12.6482 6.23345 12.6482C6.74666 12.6482 7.16406 12.2445 7.16406 11.7313C7.16406 11.4781 7.05458 11.2454 6.86982 11.0607L2.1894 6.51026L6.86982 1.94616C7.05458 1.76141 7.16406 1.5356 7.16406 1.27558C7.16406 0.762371 6.74665 0.351807 6.23345 0.351807C5.98027 0.351807 5.76814 0.440763 5.59023 0.618673L0.321331 5.77125C0.0955209 5.99022 -0.000277127 6.22287 -0.000277103 6.50342Z" fill="white"/>
</svg>
